<svg xmlns="http://www.w3.org/2000/svg" xmlns:xlink="http://www.w3.org/1999/xlink" viewBox="0 0 280 120">
  <defs>
    <path id="a" d="M0 0h280v120H0z"/>
    <path id="c" d="M1 1h100v180H1z"/>
    <path id="e" d="M1 1h100v180H1z"/>
  </defs>
  <g fill="none" fill-rule="evenodd">
    <mask id="b" fill="#fff">
      <use xlink:href="#a"/>
    </mask>
    <use fill="#F1F5F5" xlink:href="#a"/>
    <g mask="url(#b)">
      <g transform="translate(-47 21)">
        <path stroke="#6F7E80" stroke-width="2" fill="#FFF" d="M0 0h102v182H0z"/>
        <mask id="d" fill="#fff">
          <use xlink:href="#c"/>
        </mask>
        <use fill="#FFF" xlink:href="#c"/>
        <g mask="url(#d)">
          <path fill="#F1F5F5" d="M1 19h100v162H1z"/>
          <g transform="translate(7 27)" fill="#FFF" stroke="#CDD3D3" stroke-width="2">
            <rect x="-1" y="-1" width="90" height="28" rx="1"/>
            <rect x="-1" y="33" width="90" height="28" rx="1"/>
            <rect x="-1" y="67" width="90" height="28" rx="1"/>
          </g>
          <g>
            <path fill="#FFF" d="M1 1h100v18H1z"/>
            <path stroke="#6F7E80" stroke-width="2" stroke-linecap="square" d="M2 19.5h98"/>
            <path d="M87 10h10m-5-5v10" stroke="#6F7E80" stroke-width="2"/>
            <path fill="#6F7E80" d="M23 7h48v8H23z"/>
          </g>
        </g>
      </g>
    </g>
    <g mask="url(#b)" stroke="#489DF1" stroke-width="3">
      <g transform="translate(29 15)">
        <circle cx="16" cy="16" r="16"/>
        <path d="M32.5 16.5h10"/>
      </g>
    </g>
    <g mask="url(#b)">
      <path d="M76.5 26l11 11m0-11l-11 11" stroke="#489DF1" stroke-width="3"/>
      <g fill="#6F7E80">
        <path d="M91.5 31h56v2h-56zM91.5 39h66v2h-66zM91.5 47h43v2h-43z"/>
      </g>
    </g>
    <g mask="url(#b)">
      <g transform="translate(169 -69)">
        <path stroke="#6F7E80" stroke-width="2" fill="#FFF" d="M0 0h102v182H0z"/>
        <mask id="f" fill="#fff">
          <use xlink:href="#e"/>
        </mask>
        <use fill="#FFF" xlink:href="#e"/>
        <g mask="url(#f)">
          <path fill="#F1F5F5" d="M1 19h100v162H1z"/>
          <g transform="translate(7 27)" fill="#FFF" stroke="#CDD3D3" stroke-width="2">
            <rect x="-1" y="33" width="90" height="28" rx="1"/>
            <rect x="-1" y="67" width="90" height="28" rx="1"/>
            <rect x="-1" y="101" width="90" height="28" rx="1"/>
            <rect x="-1" y="135" width="90" height="28" rx="1"/>
          </g>
          <path d="M84 165a9 9 0 100-18 9 9 0 000 18zm-5-9h10m-5-5v10" stroke="#6F7E80" stroke-width="2" fill="#CDD3D3"/>
        </g>
      </g>
    </g>
    <g mask="url(#b)" stroke="#489DF1" stroke-width="3">
      <g transform="translate(157 71)">
        <circle cx="96" cy="16" r="16"/>
        <path d="M.5 16.5L80 16"/>
      </g>
    </g>
    <g mask="url(#b)">
      <g fill="#6F7E80">
        <path d="M91.5 86h58v2h-58zM91.5 94h62v2h-62zM91.5 102h29v2h-29z"/>
      </g>
      <path stroke="#489DF1" stroke-width="3" d="M76 84.5l5.5 5.5 9-10.5"/>
    </g>
  </g>
</svg>
