<svg xmlns="http://www.w3.org/2000/svg" xmlns:xlink="http://www.w3.org/1999/xlink" viewBox="0 0 280 120">
  <defs>
    <path id="a" d="M0 0h280v120H0z"/>
  </defs>
  <g fill="none" fill-rule="evenodd">
    <mask id="b" fill="#fff">
      <use xlink:href="#a"/>
    </mask>
    <use fill="#F1F5F5" xlink:href="#a"/>
    <g mask="url(#b)">
      <path fill="#CDD3D3" stroke="#6F7E80" stroke-width="2" d="M0-8a8 8 0 00-8 8v48a8 8 0 008 8h8v12l12-12h108a8 8 0 008-8V0a8 8 0 00-8-8H0z"/>
      <g fill="#6F7E80">
        <path d="M8 8h101v3H8zM8 19h111v3H8z"/>
      </g>
      <g>
        <path fill="#FFF" stroke="#6F7E80" stroke-width="2" d="M247 37a8 8 0 018 8v48a8 8 0 01-8 8h-8v12l-12-12H119a8 8 0 01-8-8V45a8 8 0 018-8h128z"/>
        <g fill="#489DF1">
          <path d="M127 53h101v3H127zM127 64h111v3H127zM127 75h72v3h-72z"/>
        </g>
      </g>
    </g>
  </g>
</svg>
