<svg xmlns="http://www.w3.org/2000/svg" xmlns:xlink="http://www.w3.org/1999/xlink" viewBox="0 0 280 120">
  <defs>
    <path id="a" d="M0 0h280v120H0z"/>
  </defs>
  <g fill="none" fill-rule="evenodd">
    <mask id="b" fill="#fff">
      <use xlink:href="#a"/>
    </mask>
    <use fill="#F1F5F5" xlink:href="#a"/>
    <g mask="url(#b)">
      <g transform="translate(-7 -15)">
        <path fill="#F1F5F5" stroke="#6F7E80" stroke-width="4" d="M0 10h109v129H0zM162 0h144v150H162z"/>
        <rect width="111" height="22" x="180" y="26" fill="#FFF" stroke="#6F7E80" stroke-width="2" rx="2"/>
        <rect width="111" height="22" x="180" y="76" fill="#FFF" stroke="#6F7E80" stroke-width="2" rx="2"/>
        <rect width="111" height="22" x="180" y="122" fill="#CDD3D3" stroke="#6F7E80" stroke-width="2" rx="2"/>
        <path fill="#6F7E80" d="M180 64h64v4h-64zM180 14h64v4h-64z"/>
        <circle cx="77.5" cy="111.5" r="17.5" fill="#CDD3D3" stroke="#6F7E80" stroke-width="3"/>
        <path stroke="#6F7E80" stroke-linecap="square" stroke-width="3" d="M77.5 104v16M69.5 111.5h16"/>
        <path stroke="#489DF1" stroke-width="3" d="M95 111c21.33 3.33 32-9 32-37s8.67-41.33 26-40"/>
        <circle cx="95" cy="112" r="5" fill="#FFF" stroke="#489DF1" stroke-width="3"/>
        <path fill="#489DF1" d="M160 34l-12 6V28z"/>
      </g>
    </g>
  </g>
</svg>
