<svg xmlns="http://www.w3.org/2000/svg" xmlns:xlink="http://www.w3.org/1999/xlink" viewBox="0 0 280 120">
  <defs>
    <path id="a" d="M0 0h280v120H0z"/>
    <path id="c" d="M5 13h100v180H5z"/>
    <path id="e" d="M0 13h235v178H0z"/>
  </defs>
  <g fill="none" fill-rule="evenodd">
    <mask id="b" fill="#fff">
      <use xlink:href="#a"/>
    </mask>
    <use fill="#F1F5F5" xlink:href="#a"/>
    <g mask="url(#b)">
      <g transform="translate(9 -100)">
        <path fill="#6F7E80" stroke="#506062" stroke-width="2" d="M10.26 0h89.48c3.57 0 4.86.37 6.17 1.07 1.3.7 2.32 1.72 3.02 3.02.7 1.3 1.07 2.6 1.07 6.17v189.48c0 3.57-.37 4.86-1.07 6.17a7.27 7.27 0 01-3.02 3.02c-1.3.7-2.6 1.07-6.17 1.07H10.26c-3.57 0-4.86-.37-6.17-1.07a7.27 7.27 0 01-3.02-3.02c-.7-1.3-1.07-2.6-1.07-6.17V10.26C0 6.69.37 5.4 1.07 4.09a7.27 7.27 0 013.02-3.02C5.4.37 6.7 0 10.26 0z"/>
        <path fill="#F1F5F5" stroke="#506062" stroke-width="2" d="M4 12h102v182H4z"/>
        <mask id="d" fill="#fff">
          <use xlink:href="#c"/>
        </mask>
        <use fill="#F1F5F5" xlink:href="#c"/>
        <g mask="url(#d)">
          <g transform="translate(18 102)">
            <path fill="#489DF1" d="M0 0h48v3H0z"/>
            <rect width="75" height="15" y="9" fill="#FFF" stroke="#6F7E80" stroke-width="2" rx="2"/>
          </g>
          <g transform="translate(18 140)">
            <path fill="#489DF1" d="M0 0h36v3H0z"/>
            <rect width="75" height="15" y="9" fill="#FFF" stroke="#6F7E80" stroke-width="2" rx="2"/>
          </g>
          <g transform="translate(18 178)">
            <path fill="#489DF1" d="M0 0h42v3H0z"/>
            <rect width="75" height="15" y="9" fill="#FFF" stroke="#6F7E80" stroke-width="2" rx="2"/>
          </g>
        </g>
      </g>
    </g>
    <g mask="url(#b)">
      <g transform="translate(130 19)">
        <rect width="235" height="191" fill="#6F7E80" stroke="#506062" stroke-width="2" rx="4"/>
        <mask id="f" fill="#fff">
          <use xlink:href="#e"/>
        </mask>
        <use fill="#F1F5F5" stroke="#506062" stroke-width="2" xlink:href="#e"/>
        <g fill="#489DF1" mask="url(#f)">
          <path d="M80 44h76v11H80zM62 67h112v3H62zM56 76h124v3H56zM68 85h100v3H68z"/>
        </g>
      </g>
    </g>
  </g>
</svg>
