<svg xmlns="http://www.w3.org/2000/svg" width="805" height="1005" viewBox="0 0 805 1005"><g fill="none" fill-rule="evenodd"><path fill="#1A1A1A" fill-rule="nonzero" stroke="#FFF" stroke-linecap="round" stroke-linejoin="round" stroke-width="5" d="M2.5 2.5h800v1000H2.5z"/><path stroke="#FFF" stroke-linecap="round" stroke-linejoin="round" stroke-width="5" d="M401.4 112.2v150-150zM353.7 83l47.5 177.3L353.7 83zm95.3 0l-47.4 177.4L449 82.9v.1zm-122.8 49.3l75 130-75-130zm150.5.1l-75 130 75-130zm-205.5-1.9l129.9 130-129.9-130h0z"/><path stroke="#FFF" stroke-linecap="round" stroke-linejoin="round" stroke-width="5" d="M531.8 130.7L402 260.6l129.8-129.9zm-260.6 56.6l130 75-130-75zm260.8.3l-130 75 130-75h0z"/><path fill="#1A1A1A" fill-rule="nonzero" stroke="#1A1A1A" stroke-linecap="round" stroke-linejoin="round" stroke-width="5.5" d="M499.7 287.7c-13.796 54.305-68.986 87.159-123.3 73.4-54.296-13.753-87.19-68.888-73.5-123.2 13.71-54.238 68.723-87.156 123-73.6 54.36 13.575 87.438 68.63 73.9 123"/><path stroke="#FFF" stroke-linecap="round" stroke-linejoin="round" stroke-width="5" d="M256.6 719.2h-132v-320h265.3c7.6-65.7-15.4-88.2-29.9-133.9-6.4-22.7 22.1-43.1 35.9-15 3.3 6.7-2.5 18.6-9.4 12.7-10-8.6 3.9-29 17.6-28.6 37.1 1 19.5 38.2 11.1 26.6-7.3-10.1 8.6-24.1 12.1-24.8 22.9-4 25.2 17.3 21.3 30-17 44.3-36.1 62.3-28.7 133h264.6v320H554"/><path stroke="#FFF" stroke-linecap="round" stroke-linejoin="round" stroke-width="5" d="M480 282c-10.898 42.74-54.334 68.596-97.1 57.8-42.772-10.81-68.72-54.205-58-97 10.81-42.772 54.205-68.72 97-58 42.755 10.723 68.78 54.01 58.2 96.8"/><path fill="#FFF" fill-rule="nonzero" d="M239 542.6c-.4 0-.733-.133-1-.4-.333-.267-.5-.6-.5-1V536c0-.467.133-.833.4-1.1.333-.333.7-.5 1.1-.5h6.3v-36H239c-.4 0-.733-.167-1-.5-.333-.267-.5-.6-.5-1v-5c0-.467.133-.867.4-1.2.333-.267.7-.4 1.1-.4h21.4c.4 0 .733.133 1 .4.333.333.5.7.5 1.1v5c0 .467-.133.833-.4 1.1-.333.333-.7.5-1.1.5h-6.2v36h6.2c.4 0 .733.167 1 .5.333.267.5.6.5 1v5.1c0 .467-.133.833-.4 1.1-.333.267-.7.4-1.1.4H239v.1zm34.4 0c-.4 0-.733-.133-1-.4-.333-.267-.5-.6-.5-1v-39c0-.4.133-.733.4-1 .333-.267.7-.4 1.1-.4h5.7c.467 0 .833.133 1.1.4.333.267.5.6.5 1v3.5c1.333-1.867 2.933-3.3 4.8-4.3 1.867-1.067 3.933-1.6 6.2-1.6 2.8 0 5.3.667 7.5 2s3.933 3.167 5.2 5.5c1.267 2.333 1.933 4.967 2 7.9v26c0 .4-.167.733-.5 1-.333.267-.7.4-1.1.4H299c-.467 0-.833-.133-1.1-.4-.333-.267-.5-.6-.5-1v-25c0-2.533-.667-4.5-2-5.9-1.267-1.333-3.1-2-5.5-2-2.867 0-5.167.933-6.9 2.8-1.6 1.8-2.4 4.333-2.4 7.6v22.4c0 .467-.167.833-.5 1.1-.267.267-.6.4-1 .4h-5.8.1zm59.9 1c-3.2 0-6.133-.767-8.8-2.3-2.667-1.6-4.767-3.733-6.3-6.4-1.533-2.667-2.3-5.6-2.3-8.8v-8.8c0-3.2.767-6.133 2.3-8.8 1.6-2.667 3.7-4.8 6.3-6.4 2.667-1.533 5.6-2.3 8.8-2.3 2.467 0 4.8.5 7 1.5 2.267 1 4.2 2.4 5.8 4.2.333.333.5.733.5 1.2 0 .533-.233 1-.7 1.4l-3.1 3.2c-.333.333-.733.5-1.2.5-.4 0-.8-.233-1.2-.7-1.933-1.867-4.3-2.8-7.1-2.8-2.4 0-4.433.833-6.1 2.5-1.667 1.667-2.5 3.7-2.5 6.1v9.6c0 2.4.833 4.433 2.5 6.1 1.667 1.667 3.7 2.5 6.1 2.5 2.8 0 5.133-.933 7-2.8.467-.467.9-.7 1.3-.7.467 0 .867.167 1.2.5l3.1 3.2c.467.4.7.867.7 1.4 0 .467-.167.867-.5 1.2-1.6 1.8-3.533 3.2-5.8 4.2-2.2 1-4.533 1.5-7 1.5zm28.7-1c-.933 0-1.7-.267-2.3-.8-.667-.667-1-1.433-1-2.3v-44.4h-6.6c-.4 0-.733-.133-1-.4-.333-.333-.5-.7-.5-1.1v-5.4c0-.467.133-.833.4-1.1.333-.333.7-.5 1.1-.5h12.3c.867 0 1.6.333 2.2 1 .667.6 1 1.333 1 2.2v44.4h6.6c.467 0 .833.133 1.1.4.267.267.4.633.4 1.1v5.4c0 .467-.133.833-.4 1.1-.267.267-.6.4-1 .4h-12.4.1zm35.7 1c-2.733 0-5.233-.667-7.5-2-2.2-1.333-3.933-3.167-5.2-5.5-1.267-2.333-1.9-4.967-1.9-7.9v-26c0-.4.133-.733.4-1 .333-.267.7-.4 1.1-.4h5.7c.467 0 .833.133 1.1.4.333.267.5.6.5 1v25c0 2.533.667 4.533 2 6 1.333 1.333 3.167 2 5.5 2 2.867 0 5.133-.933 6.8-2.8 1.733-1.867 2.6-4.433 2.6-7.7v-22.4c0-.467.133-.833.4-1.1.267-.267.633-.4 1.1-.4h5.7c.467 0 .833.133 1.1.4.267.267.4.6.4 1v39c0 .4-.133.733-.4 1s-.633.4-1.1.4h-5.7c-.467 0-.833-.133-1.1-.4-.267-.267-.4-.6-.4-1v-3.5a14.4 14.4 0 01-5 4.4c-1.8 1-3.8 1.5-6 1.5h-.1zm43.1 0c-2.667 0-5.2-.4-7.6-1.2-2.4-.8-4.567-1.967-6.5-3.5-.267-.2-.433-.433-.5-.7v-1l2.6-4.6c.333-.533.8-.8 1.4-.8l1 .2c1.8 1.267 3.467 2.2 5 2.8 1.533.533 3.133.8 4.8.8 2.067 0 3.633-.367 4.7-1.1 1.067-.8 1.6-1.867 1.6-3.2 0-1.133-.467-2-1.4-2.6-.933-.667-2.667-1.467-5.2-2.4l-2.7-1c-2.133-.867-3.933-1.767-5.4-2.7-1.533-.933-2.867-2.267-4-4-1-1.6-1.5-3.633-1.5-6.1 0-3.867 1.267-6.933 3.8-9.2 2.667-2.267 6.1-3.4 10.3-3.4 2.467 0 4.9.4 7.3 1.2 2.4.8 4.5 1.9 6.3 3.3.2.2.333.467.4.8.133.333.133.633 0 .9-.4 1-1.133 2.533-2.2 4.6-.267.533-.733.8-1.4.8-.333 0-.667-.1-1-.3-3.333-2.2-6.433-3.3-9.3-3.3-1.667 0-3 .367-4 1.1-.933.667-1.4 1.667-1.4 3s.533 2.4 1.6 3.2c1.067.8 3.067 1.767 6 2.9 2.733 1.067 4.867 2 6.4 2.8 1.533.667 2.933 1.833 4.2 3.5 1.333 1.667 2 3.767 2 6.3s-.667 4.8-2 6.8c-1.267 1.933-3.067 3.433-5.4 4.5-2.267 1.067-4.9 1.6-7.9 1.6zm31.2-47.7c-.467 0-.833-.167-1.1-.5-.333-.267-.5-.6-.5-1v-8c0-.467.167-.833.5-1.1.267-.333.6-.5 1-.5h5c.467 0 .833.167 1.1.5.333.267.5.6.5 1v8c0 .467-.167.833-.5 1.1-.267.333-.6.5-1 .5h-5zm1.7 46.8c-1 0-1.867-.333-2.6-1-.667-.8-1-1.7-1-2.7v-30h-6c-.4 0-.733-.1-1-.3-.333-.333-.5-.7-.5-1.1v-5.3c0-.467.133-.833.4-1.1.333-.267.7-.4 1.1-.4h11c1.067 0 1.933.333 2.6 1 .733.667 1.1 1.533 1.1 2.6v30h6c.4 0 .733.133 1 .4.333.267.5.6.5 1v5.3c0 .467-.167.833-.5 1.1-.267.333-.6.5-1 .5h-11.1zm30.9.3c-1.067 0-1.8-.467-2.2-1.4L488.8 503l-.1-.7c0-.467.167-.833.5-1.1.333-.333.767-.5 1.3-.5h5.1c.533 0 1 .133 1.4.4.4.267.667.667.8 1.2l9.9 29.4 9.9-29.4c.133-.533.4-.933.8-1.2.4-.267.867-.4 1.4-.4h4.7c.533 0 .967.167 1.3.5.333.267.5.633.5 1.1l-.1.7-13.5 38.5c-.2.467-.533.833-1 1.1-.4.333-.833.5-1.3.5l-5.8-.1zm44.6-.4a17.7 17.7 0 01-8.8-2.3c-2.667-1.533-4.767-3.667-6.3-6.4-1.533-2.667-2.3-5.567-2.3-8.7v-8c0-3.133.767-6.033 2.3-8.7 1.6-2.667 3.7-4.8 6.3-6.4 2.667-1.533 5.6-2.3 8.8-2.3 3.2 0 6.1.767 8.7 2.3 2.667 1.6 4.8 3.733 6.4 6.4 1.533 2.667 2.3 5.6 2.3 8.8v4.9c0 .867-.333 1.6-1 2.2-.533.667-1.233 1-2.1 1h-23v.3c0 2.4.867 4.433 2.6 6.1 1.667 1.667 3.7 2.5 6.1 2.5h11.6c.467 0 .833.167 1.1.5.333.267.5.6.5 1v5.3c0 .467-.167.833-.5 1.1-.267.267-.6.4-1 .4h-11.7zm8.6-25.2v-.6c0-2.4-.833-4.433-2.5-6.1-1.667-1.733-3.667-2.6-6-2.6s-4.4.867-6.2 2.6c-1.667 1.667-2.5 3.667-2.5 6v.7h17.2zM201.4 624c-3.4 0-6.567-.833-9.5-2.5-2.867-1.8-5.167-4.133-6.9-7-1.667-3-2.5-6.267-2.5-9.8v-15.6c0-3.467.833-6.667 2.5-9.6 1.733-3 4.033-5.333 6.9-7 2.933-1.8 6.1-2.7 9.5-2.7 3 0 5.767.567 8.3 1.7 2.667 1.067 4.867 2.667 6.6 4.8.333.333.5.733.5 1.2 0 .467-.2.967-.6 1.5l-3.2 3.3c-.4.4-.8.6-1.2.6-.467 0-.9-.2-1.3-.6-2.333-2.6-5.333-3.9-9-3.9-1.8 0-3.467.5-5 1.5-1.533.933-2.767 2.267-3.7 4-.933 1.733-1.4 3.467-1.4 5.2v15.6c0 1.933.467 3.733 1.4 5.4.933 1.667 2.133 2.967 3.6 3.9 1.6 1 3.267 1.5 5 1.5 3.733 0 6.733-1.333 9-4 .467-.4.9-.6 1.3-.6.467 0 .9.2 1.3.6l3.2 3.4c.4.4.6.867.6 1.4 0 .4-.133.8-.4 1.2a17.739 17.739 0 01-6.7 4.8c-2.533 1.133-5.3 1.7-8.3 1.7zm40.1 0c-3.133 0-6.033-.733-8.7-2.2-2.667-1.6-4.767-3.7-6.3-6.3-1.533-2.6-2.333-5.467-2.4-8.6v-9.6c0-3.067.8-5.9 2.4-8.5 1.533-2.667 3.633-4.733 6.3-6.2 2.667-1.6 5.567-2.4 8.7-2.4 3.2 0 6.133.8 8.8 2.4 2.667 1.467 4.767 3.533 6.3 6.2 1.6 2.667 2.4 5.5 2.4 8.5v9.6c0 3.067-.8 5.933-2.4 8.6a16.81 16.81 0 01-6.3 6.3c-2.667 1.467-5.6 2.2-8.8 2.2zm0-8.5c2.4 0 4.433-.8 6.1-2.4 1.733-1.733 2.6-3.8 2.6-6.2v-9.6c0-2.4-.867-4.4-2.6-6-1.667-1.733-3.667-2.6-6-2.6s-4.4.867-6.2 2.6c-1.667 1.6-2.5 3.6-2.5 6v9.6c0 2.4.833 4.467 2.5 6.2 1.733 1.6 3.767 2.4 6.1 2.4zm29 7.5c-.467 0-.833-.133-1.1-.4-.267-.267-.4-.6-.4-1v-38.9c0-.4.133-.733.4-1 .267-.333.6-.5 1-.5h5.8c.467 0 .8.133 1 .4.333.333.5.7.5 1.1v3.8c1.4-2.067 3.067-3.633 5-4.7 2-1.067 4.033-1.6 6.1-1.6 2.667 0 5.033.667 7.1 2 2.133 1.2 3.8 2.967 5 5.3 1.333-2.267 3.167-4.033 5.5-5.3 2.267-1.333 4.733-2 7.4-2 4.2 0 7.533 1.433 10 4.3 2.533 2.733 3.8 6.4 3.8 11v26c0 .467-.133.833-.4 1.1-.333.333-.7.5-1.1.5h-5.7c-.467 0-.833-.167-1.1-.5-.333-.267-.5-.6-.5-1v-25c0-2.533-.567-4.467-1.7-5.8-1.2-1.467-2.867-2.2-5-2.2-2.933 0-5.267.967-7 2.9-1.6 1.867-2.4 4.433-2.4 7.7v22.3c0 .467-.167.833-.5 1.1-.267.333-.6.5-1 .5h-5.8c-.4 0-.733-.167-1-.5-.333-.267-.5-.6-.5-1v-25c0-2.533-.6-4.467-1.8-5.8-1.133-1.467-2.8-2.2-5-2.2-2.867 0-5.167.967-6.9 2.9-1.667 1.867-2.5 4.433-2.5 7.7v22.3c0 .467-.133.833-.4 1.1-.267.333-.633.5-1.1.5h-5.7v-.1zm69.3 14.2c-.467 0-.833-.167-1.1-.5-.333-.267-.5-.6-.5-1v-53c0-.4.167-.733.5-1 .267-.333.6-.5 1-.5h4.8c.467 0 .833.133 1.1.4.267.333.4.7.4 1.1v3.3c1.333-1.867 2.9-3.3 4.7-4.3 1.933-1 3.933-1.5 6-1.5 2.933 0 5.633.8 8.1 2.4 2.533 1.467 4.533 3.5 6 6.1 1.533 2.6 2.3 5.367 2.3 8.3v10.2c0 3-.733 5.767-2.2 8.3-1.467 2.533-3.467 4.633-6 6.3-2.467 1.467-5.167 2.2-8.1 2.2-1.8 0-3.567-.333-5.3-1-1.667-.8-3.167-1.933-4.5-3.4v16c0 .467-.167.833-.5 1.1-.267.333-.6.5-1 .5h-5.7zm15.9-21.6c2.4 0 4.4-.833 6-2.5 1.733-1.667 2.6-3.7 2.6-6.1v-9.7c0-2.4-.833-4.433-2.5-6.1-1.667-1.733-3.7-2.6-6.1-2.6-2.4 0-4.467.867-6.2 2.6-1.667 1.667-2.5 3.667-2.5 6v9.8c0 2.4.833 4.433 2.5 6.1 1.733 1.667 3.8 2.5 6.2 2.5zm43.6 8.4c-3.133 0-6.033-.733-8.7-2.2-2.667-1.6-4.767-3.7-6.3-6.3-1.533-2.6-2.333-5.467-2.4-8.6v-9.6c0-3.067.8-5.9 2.4-8.5 1.533-2.667 3.633-4.733 6.3-6.2 2.667-1.6 5.567-2.4 8.7-2.4 3.133 0 6.033.8 8.7 2.4 2.667 1.467 4.8 3.533 6.4 6.2 1.6 2.667 2.367 5.5 2.3 8.5v9.6c0 3.067-.767 5.933-2.3 8.6s-3.667 4.767-6.4 6.3c-2.6 1.467-5.5 2.2-8.7 2.2zm0-8.5c2.4 0 4.433-.8 6.1-2.4 1.733-1.733 2.6-3.8 2.6-6.2v-9.6c0-2.4-.867-4.4-2.6-6-1.667-1.733-3.667-2.6-6-2.6s-4.4.867-6.2 2.6c-1.667 1.6-2.5 3.6-2.5 6v9.6c0 2.4.833 4.467 2.5 6.2 1.733 1.6 3.767 2.4 6.1 2.4zm29 7.5c-.467 0-.833-.133-1.1-.4-.333-.267-.5-.6-.5-1v-38.9c0-.4.167-.733.5-1 .267-.333.6-.5 1-.5h5.8c.4 0 .733.133 1 .4.333.333.5.7.5 1.1v3.4c1.333-1.8 2.933-3.233 4.8-4.3 1.933-1.067 4.033-1.6 6.3-1.6 2.733 0 5.2.667 7.4 2 2.267 1.333 4.033 3.167 5.3 5.5 1.267 2.333 1.9 4.967 1.9 7.9v26c0 .4-.167.733-.5 1-.267.333-.6.5-1 .5h-5.8c-.4 0-.733-.167-1-.5-.333-.267-.5-.6-.5-1v-25c0-2.533-.667-4.467-2-5.8-1.333-1.467-3.167-2.2-5.5-2.2-2.867 0-5.167.967-6.9 2.9-1.667 1.867-2.5 4.433-2.5 7.7v22.3c0 .467-.133.833-.4 1.1-.333.333-.7.5-1.1.5h-5.7v-.1zm59.9 0c-3.2 0-6.133-.767-8.8-2.3a16.81 16.81 0 01-6.3-6.3c-1.533-2.667-2.3-5.6-2.3-8.8v-7.9c0-3.2.767-6.133 2.3-8.8a16.81 16.81 0 016.3-6.3c2.667-1.6 5.6-2.4 8.8-2.4 3.2 0 6.1.8 8.7 2.4a16.81 16.81 0 016.3 6.3c1.6 2.667 2.4 5.6 2.4 8.8v4.9c0 .867-.333 1.633-1 2.3-.6.533-1.333.8-2.2.8h-22.9v.4c0 2.4.833 4.433 2.5 6.1 1.733 1.667 3.8 2.5 6.2 2.5h11.6c.4 0 .733.167 1 .5.333.267.5.6.5 1v5.3c0 .467-.133.833-.4 1.1-.333.333-.7.5-1.1.5h-11.6v-.1zm8.6-25.2v-.6c0-2.4-.867-4.4-2.6-6-1.667-1.733-3.667-2.6-6-2.6s-4.4.8-6.2 2.4c-1.667 1.667-2.5 3.667-2.5 6v.7h17.3v.1zm19.7 25.2c-.4 0-.733-.133-1-.4-.333-.267-.5-.6-.5-1v-38.9c0-.4.133-.733.4-1 .333-.333.7-.5 1.1-.5h5.7c.467 0 .833.133 1.1.4.333.333.5.7.5 1.1v3.4c1.333-1.8 2.933-3.233 4.8-4.3 1.867-1.067 3.933-1.6 6.2-1.6 2.8 0 5.3.667 7.5 2s3.933 3.167 5.2 5.5c1.267 2.333 1.933 4.967 2 7.9v26c0 .4-.167.733-.5 1-.267.333-.633.5-1.1.5h-5.7c-.467 0-.833-.167-1.1-.5-.267-.267-.4-.6-.4-1v-25c0-2.533-.667-4.467-2-5.8-1.333-1.467-3.2-2.2-5.6-2.2-2.867 0-5.133.967-6.8 2.9-1.667 1.867-2.5 4.433-2.5 7.7v22.3c0 .467-.167.833-.5 1.1-.267.333-.6.5-1 .5h-5.8v-.1zm59.5 0c-3.867 0-7-1.133-9.4-3.4-2.333-2.4-3.5-5.5-3.5-9.3v-21h-5c-.467 0-.833-.133-1.1-.4-.333-.267-.5-.6-.5-1v-5.2c0-.4.167-.733.5-1 .267-.333.6-.5 1-.5h5.1v-8c0-.4.167-.733.5-1 .267-.333.6-.5 1-.5h5.8c.4 0 .733.167 1 .5.333.267.5.6.5 1v8h12.4c.4 0 .733.133 1 .4.333.333.5.7.5 1.1v5.2c0 .467-.133.833-.4 1.1-.333.267-.7.4-1.1.4h-12.4V610c0 1.467.4 2.633 1.2 3.5.933.867 2.1 1.3 3.5 1.3h7.7c.4 0 .733.167 1 .5.333.333.5.7.5 1.1v5.1c0 .467-.133.833-.4 1.1-.333.333-.7.5-1.1.5h-8.4l.1-.1zm31.3 1c-2.667 0-5.233-.4-7.7-1.2-2.467-.8-4.633-1.967-6.5-3.5l-.5-.7.1-1 2.5-4.5c.4-.667.867-1 1.4-1 .4 0 .733.133 1 .4 1.8 1.2 3.467 2.1 5 2.7 1.533.533 3.167.8 4.9.8 2 0 3.533-.367 4.6-1.1 1.133-.8 1.7-1.867 1.7-3.2 0-1.067-.467-1.933-1.4-2.6-.933-.667-2.7-1.467-5.3-2.4l-2.6-1c-2.133-.867-3.967-1.767-5.5-2.7-1.533-.933-2.833-2.267-3.9-4-1-1.6-1.5-3.633-1.5-6.1 0-3.867 1.267-6.933 3.8-9.2 2.6-2.267 6-3.4 10.2-3.4 2.467 0 4.9.4 7.3 1.2 2.4.8 4.5 1.9 6.3 3.3.267.2.433.467.5.8v1l-2.2 4.5c-.333.533-.8.8-1.4.8-.333 0-.667-.1-1-.3-3.4-2.2-6.533-3.3-9.4-3.3-1.667 0-3 .367-4 1.1-.867.667-1.3 1.667-1.3 3s.533 2.4 1.6 3.2c1.067.8 3.033 1.767 5.9 2.9 2.8 1.067 4.933 2 6.4 2.8 1.6.667 3.033 1.867 4.3 3.6 1.333 1.6 2 3.7 2 6.3 0 2.533-.667 4.767-2 6.7-1.333 1.933-3.167 3.433-5.5 4.5-2.267 1.067-4.867 1.6-7.8 1.6zM284.4 728l-.2-.2-.2-.3v-19.4c0-.133.067-.233.2-.3l.2-.1h1.6l.3.1.1.3v8h9.8v-8l.1-.3.3-.1h1.6l.3.1v20l-.3.1h-1.6l-.3-.1-.1-.3v-9.2h-9.8v9.5l-.4.1h-1.6v.1zm25 0c-1.133 0-2.2-.333-3.2-1s-1.767-1.4-2.3-2.2a6.7 6.7 0 01-.8-3.2v-4.2a6.7 6.7 0 01.8-3.2 7.57 7.57 0 012.3-2.3 6.7 6.7 0 013.2-.8 6.7 6.7 0 013.2.8c1 .533 1.767 1.3 2.3 2.3a6.7 6.7 0 01.8 3.2v2c0 .267-.1.5-.3.7-.2.2-.433.3-.7.3h-9.3v1.3c0 .733.167 1.4.5 2a3.27 3.27 0 001.5 1.5c.6.4 1.267.6 2 .6h4.5l.1.4v1.6l-.4.1h-4.2v.1zm4-9.7v-1c0-.733-.167-1.4-.5-2a3.27 3.27 0 00-1.5-1.5c-.6-.4-1.267-.6-2-.6-.733 0-1.4.2-2 .6-.667.333-1.167.8-1.5 1.4-.333.667-.5 1.333-.5 2v1.1h8zm9.6 15.2c-.2 0-.333-.067-.4-.2a.425.425 0 010-.4l1.6-4.8-5.8-16v-.2l.1-.3.4-.2h1.3c.133 0 .233.067.3.2.133 0 .233.067.3.2l4.5 13 4.6-13c0-.133.067-.2.2-.2.067-.133.167-.2.3-.2h1.3l.4.2v.5l-7.4 21c0 .133-.1.233-.3.3l-.3.1H323zm17.9-5.2c-1.133 0-2.133-.267-3-.8-1-.533-1.767-1.267-2.3-2.2a5.949 5.949 0 01-.8-3V717c0-1.067.267-2.067.8-3a5.81 5.81 0 012.2-2.2 5.949 5.949 0 013-.8c.867 0 1.667.133 2.4.4.733.267 1.4.667 2 1.2v-6.7l.4-.2h1.4c.133 0 .233.067.3.2l.1.2v21.6l-.4.1h-1.3l-.3-.1-.1-.3v-1.3c-.533.667-1.2 1.2-2 1.6-.733.333-1.533.5-2.4.5v.1zm.2-2.2c.733 0 1.4-.167 2-.5a3.27 3.27 0 001.5-1.5c.4-.6.6-1.267.6-2v-4.8c0-.733-.2-1.4-.6-2a3.27 3.27 0 00-1.5-1.5c-.6-.4-1.267-.6-2-.6-.733 0-1.4.2-2 .6-.667.333-1.167.8-1.5 1.4-.333.667-.5 1.333-.5 2v4.9c0 .733.167 1.4.5 2a3.27 3.27 0 001.5 1.5c.6.333 1.267.5 2 .5zm17.3 2.2c-1.133 0-2.2-.3-3.2-.9-1-.6-1.733-1.367-2.2-2.3-.6-.933-.9-2-.9-3.2v-4.5c0-1.133.3-2.2.9-3.2a6.597 6.597 0 012.2-2.3 6.7 6.7 0 013.2-.8 6.7 6.7 0 013.2.8c1 .533 1.767 1.3 2.3 2.3a6.7 6.7 0 01.8 3.2v4.5c0 1.2-.267 2.267-.8 3.2-.6 1-1.367 1.767-2.3 2.3-1 .6-2.067.9-3.2.9zm0-2.2c.733 0 1.4-.167 2-.5a3.27 3.27 0 001.5-1.5c.4-.6.6-1.267.6-2v-4.8c0-.733-.2-1.4-.6-2-.333-.667-.8-1.167-1.4-1.5-.667-.4-1.333-.6-2-.6-.8 0-1.5.2-2.1.6-.667.333-1.167.8-1.5 1.4-.333.667-.5 1.333-.5 2v4.9c0 .733.167 1.4.5 2 .4.667.9 1.167 1.5 1.5.667.333 1.333.5 2 .5zm11.2 1.8l-.3-.1-.1-.3v-15.6l.1-.3.3-.2h1.5l.2.2.2.3v1.6c.467-.8 1.133-1.433 2-1.9.733-.4 1.6-.6 2.6-.6 1.667 0 3 .533 4 1.6 1.067 1 1.6 2.333 1.6 4v10.9l-.1.3h-2.1l-.1-.3V717c0-1.267-.333-2.2-1-2.8-.667-.667-1.533-1-2.6-1-1.333 0-2.367.4-3.1 1.2-.733.8-1.133 2-1.2 3.6v9.5l-.2.3h-1.7v.1zm25.1.1c-.133 0-.233-.067-.3-.2-.067-.133-.1-.233-.1-.3v-18.8c0-.267.1-.5.3-.7.2-.2.433-.3.7-.3h5c1.133 0 2.167.267 3.1.8.933.533 1.7 1.3 2.3 2.3.6.933.9 1.967.9 3.1s-.3 2.2-.9 3.2c-.6 1-1.367 1.767-2.3 2.3-.933.533-2 .8-3.2.8h-3.5v7.3l-.1.3-.3.1h-1.6v.1zm5.4-10c.667 0 1.333-.2 2-.6.667-.333 1.167-.8 1.5-1.4.333-.667.5-1.333.5-2 0-.733-.167-1.4-.5-2a3.27 3.27 0 00-1.5-1.5c-.667-.4-1.333-.6-2-.6h-3.4v8h3.4v.1zm13.4-8.8l-.3-.1-.1-.3v-2.6l.1-.3h2l.1.3v2.6l-.1.3h-1.7v.1zm.6 18.7a.96.96 0 01-.7-.3.96.96 0 01-.3-.7v-13.3h-3l-.3-.1-.2-.3v-1.3c0-.133.067-.233.2-.3.133-.067.2-.133.2-.2h4.3c.267 0 .5.133.7.4.2.2.3.433.3.7v13.3h3.3l.1.4v1.6l-.4.1h-4.2zm13.6.4c-1.133 0-2.2-.3-3.2-.9-1-.6-1.733-1.367-2.2-2.3-.6-.933-.9-2-.9-3.2v-4.5c0-1.133.3-2.2.9-3.2a6.597 6.597 0 012.2-2.3 6.7 6.7 0 013.2-.8c.867 0 1.667.133 2.4.4.733.333 1.4.767 2 1.3l.1.4-.1.5-.7.6c-.133.133-.3.2-.5.2l-.4-.2c-.8-.667-1.733-1-2.8-1-.667 0-1.333.167-2 .5-.667.333-1.167.8-1.5 1.4-.333.667-.5 1.333-.5 2v4.9c0 .733.167 1.4.5 2 .4.667.9 1.167 1.5 1.5.667.333 1.333.5 2 .5 1.067 0 2-.333 2.8-1l.4-.2.5.1.7.7.1.4-.1.4a5.45 5.45 0 01-2 1.3c-.733.333-1.533.5-2.4.5zm9.2-.3c-.133 0-.233-.067-.3-.2-.133-.067-.2-.167-.2-.3v-21.3l.2-.2c0-.133.1-.2.3-.2h1.4c.133 0 .233.067.3.2l.1.2v11.6h1.2l5.7-6c.2-.267.367-.4.5-.4h2l.2.2.1.2-.1.3-6.5 6.7 6.8 8.5.1.3v.2l-.3.1h-2c-.133 0-.267-.1-.4-.3l-6-7.6h-1.3v7.5l-.1.3-.3.1h-1.4v.1zm20.1 0c-1.067 0-2.067-.333-3-1a12.733 12.733 0 01-2.4-2.2 6.7 6.7 0 01-.8-3.2v-4.2a6.7 6.7 0 01.8-3.2 7.57 7.57 0 012.3-2.3 6.7 6.7 0 013.2-.8 6.7 6.7 0 013.2.8c1 .533 1.767 1.3 2.3 2.3a6.7 6.7 0 01.8 3.2v2c0 .267-.1.5-.3.7-.2.2-.467.3-.8.3H453v1.3c0 .733.2 1.4.6 2 .333.667.8 1.167 1.4 1.5.667.4 1.333.6 2 .6h4.6l.1.4v1.3l-.1.3-.3.1h-4.2l-.1.1zm4.1-9.7v-1c0-.733-.167-1.4-.5-2a3.27 3.27 0 00-1.5-1.5c-.667-.4-1.333-.6-2-.6-.733 0-1.4.2-2 .6-.667.333-1.167.8-1.5 1.4-.4.667-.6 1.333-.6 2v1.1h8.1zm5.7 9.7c-.133 0-.233-.067-.3-.2-.067-.133-.1-.233-.1-.3v-1.6l.4-.1h2.4v-12.3h-2.4l-.3-.1-.1-.3v-1.5l.4-.2h3.6c.267 0 .5.133.7.4.2.2.3.433.3.7v1.4l1.7-1.3c.667-.533 1.233-.867 1.7-1 .467-.2.933-.3 1.4-.3h1.2v2.2l-.3.1h-.7c-.467 0-.9.1-1.3.3-.467.2-1.133.633-2 1.3l-1.7 1.4v9.3h3.7l.1.4v1.6l-.4.1h-8zm17.2-18.8l-.4-.1V705.9h2l.1.3v2.9h-1.9l.2.1zm.5 18.7a.96.96 0 01-.7-.3.96.96 0 01-.3-.7v-13.3h-3l-.3-.1-.1-.3v-1.6l.4-.2h4.2c.333 0 .6.133.8.4.2.2.3.433.3.7v13.3h3.3c.133 0 .133.133 0 .4v1.6l-.3.1h-4.3zm8.8 0l-.3-.1-.1-.3v-15.9l.4-.2h1.4c.133 0 .233.067.3.2.067.133.1.233.1.3v1.6c.533-.8 1.2-1.433 2-1.9.8-.4 1.7-.6 2.7-.6 1.667 0 3 .533 4 1.6 1 1 1.5 2.333 1.5 4v11.1h-2.2l-.1-.3V717c0-1.267-.333-2.2-1-2.8-.667-.667-1.533-1-2.6-1-1.333 0-2.4.4-3.2 1.2-.8.8-1.2 2-1.2 3.6v9.8h-1.8l.1.1zm22.3 6c-1.8 0-3.3-.333-4.5-1-1.133-.667-1.7-1.667-1.7-3 0-.667.167-1.333.5-2 .267-.667.667-1.167 1.2-1.5-.467-.333-.8-.667-1-1-.267-.333-.4-.767-.4-1.3 0-.6.167-1.167.5-1.7.333-.533.8-1 1.4-1.4a4.368 4.368 0 01-1.5-1.8c-.4-.8-.6-1.633-.6-2.5 0-1.133.267-2.133.8-3 .533-.8 1.267-1.467 2.2-2 .867-.4 1.867-.6 3-.6.733 0 1.5.1 2.3.3h5.7c.133 0 .233.067.3.2.067.133.1.233.1.3v1.6l-.4.1h-3c.667.867 1 1.867 1 3s-.267 2.133-.8 3a5.32 5.32 0 01-2.2 2c-.867.467-1.867.7-3 .7-.733 0-1.5-.133-2.3-.4-.4.2-.733.467-1 .8s-.367.667-.3 1c0 .4.167.733.5 1l1.4.3 2.8.3 1.2.1c.933.067 1.733.2 2.4.4a2.99 2.99 0 011.7 1c.467.533.7 1.267.7 2.2 0 1.6-.667 2.8-2 3.6-1.333.8-3 1.233-5 1.3zm-.1-13.6c1.133 0 2.033-.333 2.7-1 .667-.667 1-1.533 1-2.6 0-1.067-.333-1.933-1-2.6s-1.567-1-2.7-1c-1.133 0-2.067.333-2.8 1-.667.667-1 1.533-1 2.6 0 1.067.333 1.933 1 2.6s1.6 1 2.8 1zm.4 11.6c1.333 0 2.433-.2 3.3-.6.867-.4 1.3-1.067 1.3-2 0-.533-.133-.9-.4-1.1a1.791 1.791 0 00-1-.5l-1.8-.2-1.3-.1-2.1-.2-1.2-.2a4.37 4.37 0 00-.9 1c-.2.467-.3.933-.3 1.4 0 .867.4 1.5 1.2 1.9.867.4 1.933.6 3.2.6zM145.8 852a.96.96 0 01-.7-.3.96.96 0 01-.3-.7v-.3l8.5-26a.895.895 0 01.5-.6c.2-.2.433-.3.7-.3h3c.333 0 .6.1.8.3a.895.895 0 01.5.6l8.5 26v.3c0 .267-.1.5-.3.7-.133.133-.333.2-.6.2h-2.8c-.333 0-.6-.067-.8-.2l-.5-.7-1.7-5.6h-9.2l-1.7 5.6c-.067.267-.233.5-.5.7-.2.133-.433.2-.7.2h-2.8l.1.1zm13.4-11l-3.2-10.4-3.2 10.4h6.4zm20.6 11.4c-1.667 0-3.233-.4-4.7-1.2-1.4-.867-2.533-2-3.4-3.4a9.666 9.666 0 01-1.2-4.7v-4.7c0-1.733.4-3.3 1.2-4.7.867-1.4 2-2.533 3.4-3.4a9.666 9.666 0 014.7-1.2c1.333 0 2.567.267 3.7.8a9.375 9.375 0 013.1 2.2c.2.2.3.4.3.6a.95.95 0 01-.4.8l-1.6 1.7c-.2.2-.433.3-.7.3-.2 0-.4-.133-.6-.4-1-1-2.267-1.5-3.8-1.5-1.333 0-2.433.433-3.3 1.3-.867.933-1.3 2.033-1.3 3.3v5.1c0 1.333.433 2.433 1.3 3.3.933.867 2.033 1.3 3.3 1.3 1.533 0 2.8-.5 3.8-1.5.2-.267.4-.4.6-.4.267 0 .5.1.7.3l1.6 1.7c.267.2.4.467.4.8 0 .2-.1.4-.3.6-.867.933-1.867 1.7-3 2.3-1.267.467-2.533.7-3.8.7zm20 0c-1.733 0-3.3-.4-4.7-1.2-1.4-.867-2.533-2-3.4-3.4a9.666 9.666 0 01-1.2-4.7v-4.7c0-1.733.4-3.3 1.2-4.7.867-1.4 2-2.533 3.4-3.4 1.4-.8 2.967-1.2 4.7-1.2 1.333 0 2.567.267 3.7.8a9.375 9.375 0 013.1 2.2c.2.2.3.4.3.6a.95.95 0 01-.4.8l-1.7 1.7c-.133.2-.333.3-.6.3-.2 0-.4-.133-.6-.4-1.067-1-2.333-1.5-3.8-1.5-1.333 0-2.433.433-3.3 1.3-.867.933-1.3 2.033-1.3 3.3v5.1c0 1.333.433 2.433 1.3 3.3.933.867 2.033 1.3 3.3 1.3 1.467 0 2.733-.5 3.8-1.5.2-.267.4-.4.6-.4.267 0 .467.1.6.3l1.7 1.7c.267.2.4.467.4.8 0 .2-.1.4-.3.6-.867.933-1.867 1.7-3 2.3-1.267.467-2.533.7-3.8.7zm19.9-.4c-1.667 0-3.2-.433-4.6-1.3-1.4-.867-2.533-2-3.4-3.4s-1.267-2.967-1.2-4.7v-4.2c0-1.667.4-3.233 1.2-4.7.867-1.4 2-2.533 3.4-3.4 1.4-.8 2.933-1.2 4.6-1.2 1.733 0 3.3.4 4.7 1.2 1.4.867 2.533 2 3.4 3.4a9.666 9.666 0 011.2 4.7v2.6c0 .467-.167.867-.5 1.2-.267.333-.633.5-1.1.5H215v.2c0 1.267.467 2.367 1.4 3.3.867.867 1.933 1.3 3.2 1.3h6.3c.2 0 .367.067.5.2.2.2.3.4.3.6v2.8c0 .267-.1.467-.3.6-.133.133-.3.2-.5.2h-6.3l.1.1zm4.7-13.5v-.4c0-1.267-.467-2.333-1.4-3.2-.867-.933-1.967-1.4-3.3-1.4-1.333 0-2.4.467-3.2 1.4-.933.867-1.4 1.933-1.4 3.2v.4h9.3zm16.1 13.9c-1.4 0-2.733-.2-4-.6a13.25 13.25 0 01-3.6-1.9c-.133-.067-.2-.2-.2-.4v-.5l1.3-2.4c.267-.333.533-.5.8-.5l.6.2c.933.667 1.8 1.133 2.6 1.4.8.267 1.667.4 2.6.4 1.067 0 1.9-.167 2.5-.5.6-.467.9-1.033.9-1.7s-.267-1.133-.8-1.4c-.467-.333-1.4-.767-2.8-1.3l-1.4-.6c-1.133-.4-2.133-.867-3-1.4-.733-.467-1.4-1.133-2-2-.533-.933-.8-2.067-.8-3.4 0-2 .667-3.633 2-4.9 1.333-1.2 3.167-1.8 5.5-1.8 1.333 0 2.633.233 3.9.7 1.267.4 2.367.967 3.3 1.7l.3.4v.5L247 835c-.133.267-.367.4-.7.4l-.6-.2c-1.8-1.133-3.467-1.7-5-1.7-.867 0-1.533.2-2 .6-.533.333-.8.833-.8 1.5s.267 1.267.8 1.8c.6.4 1.667.9 3.2 1.5l3.4 1.5c.867.4 1.633 1.067 2.3 2 .667.8 1 1.9 1 3.3 0 1.333-.333 2.533-1 3.6-.667 1-1.633 1.8-2.9 2.4-1.2.533-2.6.8-4.2.8v-.1zm19.1 0c-1.333 0-2.667-.2-4-.6-1.333-.467-2.5-1.1-3.5-1.9-.133-.067-.233-.2-.3-.4v-.5l1.4-2.4c.2-.333.467-.5.8-.5l.5.2c.933.667 1.8 1.133 2.6 1.4a8.8 8.8 0 002.6.4c1.133 0 1.967-.167 2.5-.5.6-.467.9-1.033.9-1.7s-.233-1.133-.7-1.4c-.533-.333-1.5-.767-2.9-1.3l-1.4-.6c-1.133-.4-2.1-.867-2.9-1.4-.8-.467-1.467-1.133-2-2-.6-.933-.9-2.067-.9-3.4 0-2 .667-3.633 2-4.9 1.4-1.2 3.233-1.8 5.5-1.8 1.333 0 2.667.233 4 .7 1.2.4 2.3.967 3.3 1.7l.2.4v.5l-1.2 2.5c-.133.267-.367.4-.7.4a.678.678 0 01-.5-.2c-1.8-1.133-3.467-1.7-5-1.7-.933 0-1.667.2-2.2.6-.467.333-.7.833-.7 1.5s.3 1.267.9 1.8c.533.4 1.567.9 3.1 1.5l3.5 1.5c.8.4 1.533 1.067 2.2 2 .667.8 1 1.9 1 3.3 0 1.333-.333 2.533-1 3.6-.667 1-1.633 1.8-2.9 2.4-1.2.533-2.6.8-4.2.8zm16.7-25.4c-.267 0-.467-.1-.6-.3-.2-.133-.3-.333-.3-.6V822c0-.267.1-.467.3-.6.133-.133.333-.2.6-.2h2.6c.267 0 .467.067.6.2.133.133.2.333.2.6v4.2c0 .267-.067.467-.2.6-.133.133-.333.2-.6.2h-2.6zm.9 25c-.533 0-1-.2-1.4-.6-.4-.4-.6-.867-.6-1.4v-16h-3.1c-.267 0-.467-.067-.6-.2-.133-.133-.2-.333-.2-.6v-2.8c0-.267.067-.467.2-.6.133-.133.333-.2.6-.2h5.9c.533 0 .967.167 1.3.5.4.4.6.867.6 1.4v16h3.2l.6.2.2.6v2.8c0 .267-.067.467-.2.6l-.6.2h-6l.1.1zm20.8.4c-1.133 0-2.2-.233-3.2-.7-1-.533-1.833-1.3-2.5-2.3v1.7c0 .267-.067.467-.2.6l-.6.2H289c-.267 0-.467-.067-.6-.2-.2-.133-.3-.333-.3-.6v-28.3c0-.2.1-.367.3-.5.133-.2.333-.3.6-.3h3c.267 0 .467.1.6.3.133.133.2.3.2.5v8.8c.667-.867 1.467-1.5 2.4-1.9.933-.4 1.9-.6 2.9-.6 1.533 0 2.967.4 4.3 1.2 1.333.8 2.4 1.9 3.2 3.3.8 1.333 1.2 2.8 1.2 4.4v5.5c0 1.533-.433 3-1.3 4.4-.733 1.333-1.8 2.433-3.2 3.3a8.214 8.214 0 01-4.3 1.2zm-.5-4.5c1.267 0 2.333-.433 3.2-1.3.933-.867 1.4-1.967 1.4-3.3v-5.2c0-1.267-.467-2.333-1.4-3.2-.867-.933-1.933-1.4-3.2-1.4-1.267 0-2.367.467-3.3 1.4-.933.867-1.4 1.933-1.4 3.2v5.2c0 1.333.467 2.433 1.4 3.3.933.867 2.033 1.3 3.3 1.3zM315 852c-.467 0-.867-.167-1.2-.5a1.637 1.637 0 01-.5-1.2v-23.7h-3.5c-.267 0-.467-.1-.6-.3-.133-.133-.2-.333-.2-.6V823c0-.267.067-.467.2-.6.133-.2.333-.3.6-.3h6.5c.533 0 .933.167 1.2.5.333.333.5.733.5 1.2v23.7h3.6l.6.2.2.6v3c0 .2-.067.367-.2.5l-.6.2H315zm19.8 0c-1.667 0-3.233-.433-4.7-1.3-1.333-.867-2.433-2-3.3-3.4s-1.3-2.967-1.3-4.7v-4.2c0-1.667.433-3.233 1.3-4.7a9.48 9.48 0 013.3-3.4 9.666 9.666 0 014.7-1.2c1.667 0 3.233.4 4.7 1.2 1.4.867 2.533 2 3.4 3.4a9.666 9.666 0 011.2 4.7v2.6c0 .467-.167.867-.5 1.2-.333.333-.733.5-1.2.5h-12.2v.2c0 1.267.433 2.367 1.3 3.3.933.867 2.033 1.3 3.3 1.3h6.2c.267 0 .467.067.6.2l.2.6v2.8c0 .267-.067.467-.2.6-.133.133-.333.2-.6.2h-6.2v.1zm4.6-13.5v-.4c0-1.267-.433-2.333-1.3-3.2-.933-.933-2.033-1.4-3.3-1.4s-2.367.467-3.3 1.4c-.867.867-1.3 1.933-1.3 3.2v.4h9.2zm25.4 13.7c-.6 0-1-.3-1.2-.9l-6.8-20.5v-.3c0-.267.067-.5.2-.7.2-.133.433-.2.7-.2h2.7c.267 0 .5.067.7.2a.895.895 0 01.5.6l4.8 15.8 4.4-15.8c0-.267.133-.467.4-.6.2-.133.433-.2.7-.2h2.8c.267 0 .5.067.7.2a.97.97 0 01.4.6l4.7 15.8 4.5-15.8a.97.97 0 01.4-.6l.8-.2h2.5c.333 0 .567.067.7.2.2.2.3.433.3.7v.3l-6.5 20.5c-.067.267-.233.5-.5.7-.2.133-.433.2-.7.2h-3.1c-.267 0-.533-.1-.8-.3a.97.97 0 01-.4-.6l-4.4-14.7-4.2 14.7c0 .267-.133.5-.4.7l-.8.2h-3.1zm37.2-.2a9.266 9.266 0 01-4.8-1.3c-1.333-.867-2.433-2-3.3-3.4s-1.3-2.967-1.3-4.7v-4.2c0-1.667.433-3.233 1.3-4.7a9.48 9.48 0 013.3-3.4 9.666 9.666 0 014.7-1.2c1.733 0 3.3.4 4.7 1.2 1.4.867 2.533 2 3.4 3.4a9.666 9.666 0 011.2 4.7v2.6c0 .467-.167.867-.5 1.2-.333.333-.733.5-1.2.5h-12.2v.2c0 1.267.433 2.367 1.3 3.3.933.867 2.033 1.3 3.3 1.3h6.2c.267 0 .467.067.6.2l.2.6v2.8c0 .267-.067.467-.2.6-.133.133-.333.2-.6.2H402v.1zm4.5-13.5v-.4c0-1.267-.433-2.333-1.3-3.2-.933-.933-2.033-1.4-3.3-1.4s-2.367.467-3.3 1.4c-.867.867-1.3 1.933-1.3 3.2v.4h9.2zm19.7 13.9c-1.2 0-2.3-.233-3.3-.7-1-.533-1.833-1.3-2.5-2.3v1.7c0 .267-.067.467-.2.6l-.6.2h-2.5c-.267 0-.467-.067-.6-.2-.2-.133-.3-.333-.3-.6v-28.3c0-.2.1-.367.3-.5.2-.133.4-.233.6-.3h3c.267 0 .467.1.6.3.133.2.2.367.2.5v8.8c.667-.867 1.467-1.5 2.4-1.9.933-.4 1.9-.6 2.9-.6 1.533 0 2.967.4 4.3 1.2 1.333.8 2.4 1.9 3.2 3.3.8 1.333 1.2 2.8 1.2 4.4v5.5c0 1.533-.4 3-1.2 4.4a10.084 10.084 0 01-3.2 3.3 8.214 8.214 0 01-4.3 1.2zm-.6-4.5c1.267 0 2.333-.433 3.2-1.3.933-.867 1.4-1.967 1.4-3.3v-5.2c0-1.267-.467-2.333-1.4-3.2-.867-.933-1.933-1.4-3.2-1.4-1.267 0-2.367.467-3.3 1.4-.933.867-1.4 1.933-1.4 3.2v5.2c0 1.333.467 2.433 1.4 3.3.933.867 2.033 1.3 3.3 1.3zm27.9-20.9c-.267 0-.467-.1-.6-.3-.2-.133-.3-.333-.3-.6V822c0-.267.1-.467.3-.6.133-.133.333-.2.6-.2h2.6c.267 0 .467.067.6.2.133.133.2.333.2.6v4.2c0 .267-.067.467-.2.6-.133.133-.333.2-.6.2h-2.6zm.9 25c-.533 0-1-.2-1.4-.6-.4-.4-.6-.867-.6-1.4v-16h-3.1c-.267 0-.467-.067-.6-.2-.133-.133-.2-.333-.2-.6v-2.8c0-.267.067-.467.2-.6.133-.133.333-.2.6-.2h5.9c.533 0 .967.167 1.3.5.4.4.6.867.6 1.4v16h3.2l.6.2.2.6v2.8c0 .267-.067.467-.2.6l-.6.2h-6l.1.1zm11.8 0c-.267 0-.467-.1-.6-.3-.2-.133-.3-.333-.3-.6v-20.7c0-.267.1-.467.3-.6.133-.133.333-.2.6-.2h3c.267 0 .467.067.6.2.133.133.2.333.2.6v1.8c.733-1 1.6-1.767 2.6-2.3 1-.533 2.1-.8 3.3-.8 1.533 0 2.867.333 4 1 1.2.667 2.133 1.667 2.8 3a9.272 9.272 0 011 4.2V851c0 .267-.067.467-.2.6-.133.133-.333.2-.6.2h-3c-.267 0-.467-.067-.6-.2-.133-.133-.2-.333-.2-.6v-13.3c0-1.333-.367-2.367-1.1-3.1-.667-.8-1.667-1.2-3-1.2-1.533 0-2.733.533-3.6 1.6-.933 1-1.4 2.333-1.4 4v12c0 .267-.067.467-.2.6-.133.133-.333.2-.6.2h-3v.2zm31.7 0c-2 0-3.667-.667-5-2-1.267-1.2-1.9-2.833-1.9-4.9V834h-2.6c-.267 0-.467-.067-.6-.2-.2-.133-.3-.333-.3-.6v-2.7c0-.267.1-.467.3-.6.133-.133.333-.2.6-.2h2.6v-4.2c0-.267.1-.467.3-.6.133-.2.333-.3.6-.3h3c.267 0 .467.1.6.3.133.133.2.333.2.6v4.2h6.6c.267 0 .467.067.6.2.2.133.3.333.3.6v2.8c0 .2-.1.367-.3.5-.133.2-.333.3-.6.3h-6.6v11c0 .733.233 1.333.7 1.8.467.467 1.067.7 1.8.7h4.1c.267 0 .467.1.6.3.2.133.3.333.3.6v2.7c0 .267-.1.467-.3.6-.133.133-.333.2-.6.2H497.9zm18.1 0c-1.667 0-3.2-.433-4.6-1.3-1.4-.867-2.533-2-3.4-3.4s-1.267-2.967-1.2-4.7v-4.2c0-1.667.4-3.233 1.2-4.7.867-1.4 2-2.533 3.4-3.4 1.4-.8 2.967-1.2 4.7-1.2 1.667 0 3.2.4 4.6 1.2 1.467.867 2.6 2 3.4 3.4.867 1.467 1.3 3.033 1.3 4.7v2.6c0 .467-.2.867-.6 1.2-.267.333-.633.5-1.1.5h-12.2v.2c0 1.267.433 2.367 1.3 3.3.867.867 1.967 1.3 3.3 1.3h6.2l.6.2.2.6v2.8c0 .267-.067.467-.2.6l-.6.2H516v.1zm4.7-13.5v-.4c0-1.267-.467-2.333-1.4-3.2-.867-.933-1.933-1.4-3.2-1.4-1.267 0-2.367.467-3.3 1.4-.867.867-1.3 1.933-1.3 3.2v.4h9.2zM530 852c-.2 0-.367-.1-.5-.3-.2-.133-.3-.333-.3-.6v-2.9c0-.2.1-.4.3-.6.2-.2.367-.267.5-.2h3V834h-3.3c-.267 0-.467-.1-.6-.3-.2-.133-.3-.3-.3-.5v-2.8c0-.267.1-.467.3-.6.133-.133.333-.2.6-.2h6c.467 0 .867.167 1.2.5.333.267.5.633.5 1.1v1.5l2-1.7c.867-.667 1.567-1.1 2.1-1.3.6-.267 1.267-.4 2-.4h1.3c.2 0 .367.067.5.2.2.2.3.4.3.6v3c0 .267-.1.467-.3.6-.133.133-.3.2-.5.2h-1c-.667 0-1.267.133-1.8.4-.533.2-1.3.733-2.3 1.6l-2.1 1.7v9.8h3.8c.267 0 .467.067.6.2.133.133.233.333.3.6v3c0 .2-.1.367-.3.5-.133.133-.333.2-.6.2H530v.1zm23.5 0c-.267 0-.467-.1-.6-.3-.133-.133-.2-.333-.2-.6V834h-3.1c-.267 0-.467-.067-.6-.2-.133-.133-.2-.333-.2-.6v-2.7c0-.267.067-.467.2-.6.133-.133.333-.2.6-.2h3v-1.3c0-2 .667-3.633 2-4.9 1.267-1.267 2.9-1.9 4.9-1.9h3.7c.2 0 .4.1.6.3.133.133.2.3.2.5v2.7c0 .267-.067.467-.2.6l-.6.2h-3.7c-.667 0-1.2.2-1.6.6-.333.4-.5.933-.5 1.6v1.6h5l.6.2c.133.133.2.333.2.6v2.7c0 .267-.067.467-.2.6l-.6.2h-5v17.2c0 .267-.1.467-.3.6-.133.133-.333.2-.6.2h-3zm20.1.4c-2.2 0-4-.6-5.4-1.8-1.333-1.267-2-2.867-2-4.8 0-1.8.633-3.3 1.9-4.5 1.2-1.2 2.933-1.967 5.2-2.3l1.7-.3 3.3-.4c.933-.2 1.4-.767 1.4-1.7 0-.933-.4-1.7-1.2-2.3-.733-.6-1.733-.9-3-.9-2.067 0-3.567.767-4.5 2.3-.267.333-.533.5-.8.5l-.5-.1-2.2-1.5c-.2-.133-.3-.367-.3-.7v-.3c.8-1.467 1.933-2.567 3.4-3.3 1.467-.8 3.133-1.2 5-1.2 1.733 0 3.267.333 4.6 1 1.333.6 2.333 1.5 3 2.7.667 1.2 1 2.567 1 4.1v14.2c0 .267-.067.467-.2.6-.133.133-.333.2-.6.2h-2.6c-.267 0-.467-.067-.6-.2-.133-.133-.2-.333-.2-.6v-1.5c-1.8 1.867-3.933 2.8-6.4 2.8zm.3-4.1c1 0 2-.267 3-.8s1.7-1.2 2.1-2c.6-.867.9-1.767.9-2.7v-.8l-3 .4-3 .4c-2.2.4-3.3 1.333-3.3 2.8 0 .8.333 1.467 1 2 .533.467 1.3.7 2.3.7zm24.7 4.1c-1.733 0-3.3-.4-4.7-1.2-1.4-.867-2.533-2-3.4-3.4a9.666 9.666 0 01-1.2-4.7v-4.7c0-1.733.4-3.3 1.2-4.7.867-1.4 2-2.533 3.4-3.4 1.4-.8 2.967-1.2 4.7-1.2 1.333 0 2.567.267 3.7.8a9.375 9.375 0 013.1 2.2c.2.2.3.4.3.6a.95.95 0 01-.4.8l-1.7 1.7c-.133.2-.333.3-.6.3-.267 0-.467-.133-.6-.4-1.067-1-2.333-1.5-3.8-1.5-1.333 0-2.433.433-3.3 1.3-.867.933-1.3 2.033-1.3 3.3v5.1c0 1.333.433 2.433 1.3 3.3.933.867 2.033 1.3 3.3 1.3 1.467 0 2.733-.5 3.8-1.5.2-.267.4-.4.6-.4.2 0 .4.1.6.3l1.7 1.7c.267.2.4.467.4.8 0 .2-.1.4-.3.6-.867.933-1.867 1.7-3 2.3-1.267.467-2.533.7-3.8.7zm19.9-.4c-1.667 0-3.2-.433-4.6-1.3-1.4-.867-2.533-2-3.4-3.4s-1.267-2.967-1.2-4.7v-4.2c0-1.667.4-3.233 1.2-4.7.867-1.4 2-2.533 3.4-3.4 1.4-.8 2.967-1.2 4.7-1.2s3.267.4 4.6 1.2c1.4.867 2.533 2 3.4 3.4a9.666 9.666 0 011.2 4.7v2.6c0 .467-.167.867-.5 1.2-.267.333-.633.5-1.1.5h-12.3v.2c0 1.267.467 2.367 1.4 3.3.867.867 1.933 1.3 3.2 1.3h6.3c.2 0 .367.067.5.2.2.2.3.4.3.6v2.8c0 .267-.1.467-.3.6-.133.133-.3.2-.5.2h-6.3v.1zm4.7-13.5v-.4c0-1.267-.467-2.333-1.4-3.2-.867-.933-1.933-1.4-3.2-1.4-1.267 0-2.367.467-3.3 1.4-.933.867-1.4 1.933-1.4 3.2v.4h9.3zm16.1 13.9c-1.4 0-2.733-.2-4-.6a13.25 13.25 0 01-3.6-1.9c-.133-.067-.2-.2-.2-.4v-.5l1.3-2.4c.267-.333.533-.5.8-.5l.6.2c.933.667 1.8 1.133 2.6 1.4.8.267 1.667.4 2.6.4 1.067 0 1.9-.167 2.5-.5.6-.467.9-1.033.9-1.7s-.267-1.133-.8-1.4c-.467-.333-1.4-.767-2.8-1.3l-1.4-.6c-1.133-.4-2.133-.867-3-1.4-.733-.467-1.4-1.133-2-2-.533-.933-.8-2.067-.8-3.4 0-2 .667-3.633 2-4.9 1.333-1.2 3.167-1.8 5.5-1.8 1.333 0 2.633.233 3.9.7 1.267.4 2.367.967 3.3 1.7l.3.4v.5l-1.2 2.5c-.133.267-.367.4-.7.4l-.6-.2c-1.8-1.133-3.467-1.7-5-1.7-.867 0-1.533.2-2 .6-.533.333-.8.833-.8 1.5s.267 1.267.8 1.8c.6.4 1.667.9 3.2 1.5l3.4 1.5c.867.4 1.633 1.067 2.3 2 .667.8 1 1.9 1 3.3 0 1.333-.333 2.533-1 3.6-.667 1-1.633 1.8-2.9 2.4-1.2.533-2.6.8-4.2.8zm12.1 4.1c-.267 0-.467-.1-.6-.3-.133-.2-.2-.433-.2-.7l2.3-7.6c0-.2.1-.367.3-.5.2-.2.433-.3.7-.3h3.8c.267 0 .467.1.6.3.2.133.3.3.3.5l-.1.5-4.6 8.1h-2.5zm-382.7 45.9c-.267 0-.467-.067-.6-.2l-.2-.6v-28.3l.2-.6c.133-.133.333-.2.6-.2h2.5c.267 0 .467.067.6.2l.2.6v1.8c.667-1 1.5-1.767 2.5-2.3 1-.533 2.1-.8 3.3-.8 1.533 0 2.967.433 4.3 1.3 1.333.8 2.4 1.867 3.2 3.2.8 1.4 1.2 2.9 1.2 4.5v5.4c0 1.6-.4 3.1-1.2 4.5-.8 1.4-1.867 2.5-3.2 3.3a8.214 8.214 0 01-4.3 1.2c-1 0-1.933-.2-2.8-.6-.933-.4-1.767-1-2.5-1.8v8.6l-.2.6c-.133.133-.333.2-.6.2h-3zm8.5-11.5c1.267 0 2.333-.433 3.2-1.3.933-.933 1.4-2.033 1.4-3.3V881c0-1.333-.467-2.4-1.4-3.2-.867-.933-1.933-1.4-3.2-1.4-1.267 0-2.367.467-3.3 1.4-.933.867-1.4 1.933-1.4 3.2v5.2c0 1.333.467 2.433 1.4 3.3.933.867 2.033 1.3 3.3 1.3v.1zm17.8-21c-.267 0-.5-.067-.7-.2l-.2-.6v-4.3l.2-.6.6-.2h2.7l.6.2.2.6v4.3l-.2.6-.6.2h-2.7.1zm.9 25c-.6 0-1.067-.2-1.4-.6-.4-.333-.6-.8-.6-1.4v-16h-3.1c-.267 0-.467-.067-.6-.2-.2-.133-.3-.333-.3-.6v-2.8c0-.2.1-.4.3-.6.133-.133.333-.2.6-.2h5.8c.6 0 1.067.2 1.4.6.4.333.6.8.6 1.4v16h3.2c.2 0 .367.067.5.2.2.133.3.333.3.6v2.8c0 .2-.1.367-.3.5-.133.2-.3.3-.5.3h-6 .1zm19.1 0a9.266 9.266 0 01-4.8-1.3c-1.333-.8-2.433-1.933-3.3-3.4-.867-1.467-1.3-3.033-1.3-4.7v-4.2c0-1.667.433-3.233 1.3-4.7a9.48 9.48 0 013.3-3.4 9.666 9.666 0 014.7-1.2c1.667 0 3.233.4 4.7 1.2 1.4.867 2.533 2 3.4 3.4a9.666 9.666 0 011.2 4.7v2.6c0 .467-.167.9-.5 1.3-.333.267-.733.4-1.2.4h-12.2v.2c0 1.333.433 2.433 1.3 3.3.933.867 2.033 1.3 3.3 1.3h6.2c.267 0 .467.1.6.3.133.2.2.367.2.5v2.9c0 .2-.067.367-.2.5-.133.2-.333.3-.6.3H315zm4.5-13.5v-.3c0-1.333-.433-2.433-1.3-3.3-.933-.867-2.033-1.3-3.3-1.3s-2.367.433-3.3 1.3c-.867.867-1.3 1.967-1.3 3.3v.3h9.2zm18.5 14c-1.733 0-3.3-.433-4.7-1.3a8.35 8.35 0 01-3.4-3.4 8.572 8.572 0 01-1.3-4.6v-4.8c0-1.667.433-3.233 1.3-4.7.8-1.4 1.933-2.5 3.4-3.3a8.572 8.572 0 014.6-1.3c1.333 0 2.6.267 3.8.8 1.2.533 2.2 1.267 3 2.2.2.2.3.433.3.7 0 .267-.1.533-.3.8L343 878c-.2.2-.4.3-.6.3-.2 0-.433-.1-.7-.3-1-1.067-2.267-1.6-3.8-1.6-1.267 0-2.333.467-3.2 1.4-.933.867-1.4 1.933-1.4 3.2v5.2c0 1.267.467 2.333 1.4 3.2.867.933 1.933 1.4 3.2 1.4 1.533 0 2.8-.533 3.8-1.6.2-.2.433-.3.7-.3.267 0 .467.1.6.3l1.7 1.6c.2.267.3.533.3.8s-.067.467-.2.6a8.77 8.77 0 01-3.1 2.3c-1.2.533-2.467.8-3.8.8l.1.1zm20-.5a9.266 9.266 0 01-4.8-1.3c-1.333-.8-2.433-1.933-3.3-3.4-.867-1.467-1.3-3.033-1.3-4.7v-4.2c0-1.667.433-3.233 1.3-4.7a9.48 9.48 0 013.3-3.4 9.666 9.666 0 014.7-1.2c1.733 0 3.3.4 4.7 1.2 1.4.867 2.533 2 3.4 3.4a9.666 9.666 0 011.2 4.7v2.6c0 .467-.167.9-.5 1.3-.333.267-.733.4-1.2.4h-12.2v.2c0 1.333.433 2.433 1.3 3.3.933.867 2.033 1.3 3.3 1.3h6.2c.267 0 .467.1.6.3.133.2.2.367.2.5v2.9c0 .2-.067.367-.2.5-.133.2-.333.3-.6.3H358zm4.5-13.5v-.3c0-1.333-.433-2.433-1.3-3.3-.933-.867-2.033-1.3-3.3-1.3s-2.367.433-3.3 1.3c-.867.867-1.3 1.967-1.3 3.3v.3h9.2zm29.5 14c-1.2 0-2.3-.267-3.3-.8-1-.467-1.833-1.2-2.5-2.2v1.7c0 .2-.1.367-.3.5-.133.2-.3.3-.5.3h-2.6c-.2 0-.4-.1-.6-.3a.678.678 0 01-.2-.5v-28.3c0-.267.067-.467.2-.6l.6-.2h3c.267 0 .5.067.7.2.133.133.2.333.2.6v8.7c.667-.8 1.433-1.4 2.3-1.8a6.616 6.616 0 013-.7c1.533 0 2.967.433 4.3 1.3 1.333.8 2.4 1.867 3.2 3.2.733 1.4 1.1 2.9 1.1 4.5v5.4c0 1.6-.4 3.1-1.2 4.5a10.084 10.084 0 01-3.2 3.3 8.214 8.214 0 01-4.3 1.2h.1zm-.7-4.5c1.333 0 2.433-.433 3.3-1.3.867-.933 1.3-2.033 1.3-3.3V881c0-1.333-.433-2.4-1.3-3.2-.933-.933-2.033-1.4-3.3-1.4s-2.333.467-3.2 1.4c-.933.867-1.4 1.933-1.4 3.2v5.2c0 1.267.467 2.367 1.4 3.3.867.867 1.933 1.3 3.2 1.3v.1zm18.7 11.5c-.333 0-.567-.1-.7-.3-.133-.2-.133-.467 0-.8l2-5.8-7.7-21.7v-.4c0-.267.067-.467.2-.6.2-.2.433-.3.7-.3h2.7c.267 0 .5.067.7.2.267.2.433.433.5.7l5.3 15.5 5.3-15.5c0-.267.133-.5.4-.7.2-.133.433-.2.7-.2h2.6c.267 0 .5.1.7.3.133.133.2.333.2.6v.4l-9.8 27.8-.5.6c-.2.2-.467.267-.8.2H410zm28.5 0c-.267 0-.467-.067-.6-.2-.133-.133-.2-.333-.2-.6v-28.3l.2-.6c.133-.133.333-.2.6-.2h2.5c.267 0 .467.067.6.2l.2.6v1.8c.667-1 1.5-1.767 2.5-2.3 1.067-.533 2.167-.8 3.3-.8 1.533 0 2.967.433 4.3 1.3 1.333.8 2.4 1.867 3.2 3.2.8 1.4 1.2 2.9 1.2 4.5v5.4c0 1.6-.4 3.1-1.2 4.5-.8 1.4-1.833 2.5-3.1 3.3-1.333.8-2.8 1.2-4.4 1.2-1 0-1.933-.2-2.8-.6a6.34 6.34 0 01-2.4-1.8v8.6c0 .2-.1.4-.3.6-.2.2-.4.267-.6.2h-3zM447 891c1.333 0 2.4-.433 3.2-1.3.933-.933 1.4-2.033 1.4-3.3V881c0-1.333-.467-2.4-1.4-3.2-.867-.933-1.933-1.4-3.2-1.4-1.267 0-2.367.467-3.3 1.4-.867.867-1.3 1.933-1.3 3.2v5.2c0 1.333.433 2.433 1.3 3.3.933.867 2.033 1.3 3.3 1.3v.2zm17.7-21.1a.678.678 0 01-.5-.2c-.2-.2-.3-.4-.3-.6v-4.3c0-.2.1-.4.3-.6.133-.133.3-.2.5-.2h2.7l.6.2.2.6v4.3l-.2.6-.6.2h-2.7zm1 25c-.533 0-1-.2-1.4-.6-.4-.333-.6-.8-.6-1.4v-16h-3.1c-.267 0-.467-.067-.6-.2-.2-.133-.3-.333-.3-.6v-2.8c0-.2.1-.4.3-.6.133-.133.333-.2.6-.2h5.9c.533 0 .967.2 1.3.6.4.333.6.8.6 1.4v16h3.2l.6.2c.2.133.267.333.2.6v2.8c0 .2-.067.367-.2.5-.2.2-.4.3-.6.3h-6 .1zm19 0c-1.667 0-3.233-.433-4.7-1.3-1.333-.8-2.433-1.933-3.3-3.4-.867-1.467-1.3-3.033-1.3-4.7v-4.2c0-1.667.433-3.233 1.3-4.7a9.48 9.48 0 013.3-3.4 9.666 9.666 0 014.7-1.2c1.733 0 3.3.4 4.7 1.2 1.4.867 2.533 2 3.4 3.4a9.666 9.666 0 011.2 4.7v2.6c0 .467-.167.9-.5 1.3-.333.267-.733.4-1.2.4h-12.2v.2c0 1.333.433 2.433 1.3 3.3.933.867 2.033 1.3 3.3 1.3h6.2c.267 0 .467.1.6.3.133.2.233.367.3.5v2.9c0 .2-.1.367-.3.5-.133.2-.333.3-.6.3h-6.2zm4.6-13.5v-.3c0-1.333-.433-2.433-1.3-3.3-.933-.867-2.033-1.3-3.3-1.3s-2.367.433-3.3 1.3c-.867.867-1.3 1.967-1.3 3.3v.3h9.2zm18.5 14c-1.733 0-3.3-.433-4.7-1.3-1.4-.8-2.533-1.933-3.4-3.4-.8-1.4-1.2-2.933-1.2-4.6v-4.8c0-1.667.4-3.233 1.2-4.7.867-1.4 2-2.5 3.4-3.3 1.4-.867 2.967-1.3 4.7-1.3 1.267 0 2.5.267 3.7.8 1.2.533 2.2 1.267 3 2.2.267.2.4.433.4.7 0 .267-.133.533-.4.8l-1.7 1.6c-.133.2-.333.3-.6.3a.96.96 0 01-.7-.3c-1-1.067-2.233-1.6-3.7-1.6-1.333 0-2.433.467-3.3 1.4-.933.867-1.4 1.933-1.4 3.2v5.2c0 1.267.467 2.333 1.4 3.2.867.933 1.967 1.4 3.3 1.4 1.467 0 2.7-.533 3.7-1.6.267-.2.5-.3.7-.3.2 0 .4.1.6.3l1.7 1.6c.267.267.4.533.4.8s-.1.467-.3.6a8.77 8.77 0 01-3.1 2.3c-1.2.533-2.433.8-3.7.8zm19.9-.5c-1.667 0-3.233-.433-4.7-1.3-1.333-.8-2.433-1.933-3.3-3.4-.867-1.467-1.3-3.033-1.3-4.7v-4.2c0-1.667.433-3.233 1.3-4.7a9.48 9.48 0 013.3-3.4 9.666 9.666 0 014.7-1.2c1.733 0 3.3.4 4.7 1.2 1.4.867 2.533 2 3.4 3.4a9.666 9.666 0 011.2 4.7v2.6c0 .467-.167.9-.5 1.3-.333.267-.733.4-1.2.4h-12.2v.2c0 1.333.433 2.433 1.3 3.3.933.867 2.033 1.3 3.3 1.3h6.2c.267 0 .467.1.6.3.133.2.233.367.3.5v2.9c0 .2-.1.367-.3.5-.133.2-.333.3-.6.3h-6.2zm4.6-13.5v-.3c0-1.333-.433-2.433-1.3-3.3-.933-.867-2.033-1.3-3.3-1.3s-2.367.433-3.3 1.3c-.867.867-1.3 1.967-1.3 3.3v.3h9.2z"/><path fill="#1A1A1A" stroke="#FFF" stroke-linejoin="round" stroke-width="5" d="M665.3 538l19.4 29 19.3-29z"/><path stroke="#FFF" stroke-linecap="round" stroke-width="5" d="M665.7 566.5h38.4"/><path fill="#1A1A1A" stroke="#FFF" stroke-linejoin="round" stroke-width="5" d="M105.7 567l19.3-29 19.4 29z"/><path stroke="#FFF" stroke-linecap="round" stroke-width="5" d="M106 538.5h38.5"/></g></svg>
