<svg xmlns="http://www.w3.org/2000/svg" xmlns:xlink="http://www.w3.org/1999/xlink" viewBox="0 0 280 120">
  <defs>
    <path id="a" d="M0 0h280v120H0z"/>
  </defs>
  <g fill="none" fill-rule="evenodd">
    <mask id="b" fill="#fff">
      <use xlink:href="#a"/>
    </mask>
    <use fill="#F1F5F5" xlink:href="#a"/>
    <g mask="url(#b)">
      <g transform="translate(-28 11)">
        <rect width="71" height="30" y="67" fill="#CDD3D3" stroke="#6F7E80" stroke-width="2" rx="2"/>
        <rect width="71" height="30" x="228" y="67" fill="#CDD3D3" stroke="#6F7E80" stroke-width="2" rx="2"/>
        <path stroke="#6F7E80" stroke-width="2" d="M36 67V49a3 3 0 013-3h222a3 3 0 013 3v18h0"/>
        <path stroke="#6F7E80" stroke-linecap="square" stroke-width="2" d="M150.5 30.62v14.76M112.5 66.38V46.62M187.5 66.38V46.62"/>
        <rect width="71" height="30" x="152" y="67" fill="#FFF" stroke="#489DF1" stroke-width="3" rx="2"/>
        <rect width="71" height="30" x="114" fill="#FFF" stroke="#489DF1" stroke-width="3" rx="2"/>
        <rect width="71" height="30" x="76" y="67" fill="#CDD3D3" stroke="#6F7E80" stroke-width="2" rx="2"/>
        <path stroke="#489DF1" stroke-width="3" d="M150.5 30v13a3 3 0 003 3h31a3 3 0 013 3v18h0"/>
      </g>
    </g>
  </g>
</svg>
